<svg
    style="left: 1px; top: 1px; width: 32px; height: 30px; display: block; position: relative; overflow: hidden; pointer-events: none;">
    <g style="pointer-events: none;">
        <g style="pointer-events: none;"></g>
        <g style="pointer-events: none;">
            <g transform="translate(0.5,0.5)" style="visibility: visible; pointer-events: none;">
                <path d="M 2.1 1.05 L 29.4 1.05 L 29.4 28.35 L 2.1 28.35 Z"
                    fill="url(#mx-gradient-f54749-1-c7131f-1-s-15)" stroke="none"
                    style="pointer-events: none;"></path>
                <path
                    d="M 24.57 19.49 L 24.02 20.04 L 25.3 21.32 L 21.18 21.32 L 21.18 22.1 L 25.3 22.1 L 24.02 23.38 L 24.57 23.93 L 26.52 21.98 C 26.67 21.83 26.67 21.58 26.52 21.43 Z M 14.17 22.1 L 18.29 22.1 L 17.01 23.38 L 17.56 23.93 L 19.51 21.98 C 19.66 21.83 19.66 21.58 19.51 21.43 L 17.56 19.49 L 17.01 20.04 L 18.29 21.32 L 14.17 21.32 Z M 10.56 23.93 L 12.5 21.98 C 12.65 21.83 12.65 21.58 12.5 21.43 L 10.56 19.49 L 10.01 20.04 L 11.29 21.32 L 7.17 21.32 L 7.17 22.1 L 11.29 22.1 L 10.01 23.38 Z M 7.17 17.04 L 14.17 17.04 L 14.17 16.26 L 7.17 16.26 Z M 7.17 12.75 L 14.17 12.75 L 14.17 11.97 L 7.17 11.97 Z M 16.51 12.75 L 18.85 12.75 L 18.85 11.59 L 16.51 11.59 Z M 19.23 10.81 C 19.45 10.81 19.62 10.98 19.62 11.2 L 19.62 13.14 C 19.62 13.36 19.45 13.53 19.23 13.53 L 16.12 13.53 C 15.9 13.53 15.73 13.36 15.73 13.14 L 15.73 11.2 C 15.73 10.98 15.9 10.81 16.12 10.81 Z M 16.51 17.43 L 25.85 17.43 L 25.85 16.26 L 16.51 16.26 Z M 26.63 15.87 L 26.63 17.81 C 26.63 18.03 26.46 18.2 26.24 18.2 L 16.12 18.2 C 15.9 18.2 15.73 18.03 15.73 17.81 L 15.73 15.87 C 15.73 15.65 15.9 15.48 16.12 15.48 L 26.24 15.48 C 26.46 15.48 26.63 15.65 26.63 15.87 Z M 18.46 7.3 L 20.63 7.3 L 18.46 5.13 Z M 21.18 23.65 L 21.96 23.65 L 21.96 25.21 C 21.96 25.43 21.79 25.6 21.57 25.6 L 5.22 25.6 C 5 25.6 4.83 25.43 4.83 25.21 L 4.83 4.19 C 4.83 3.97 5 3.8 5.22 3.8 L 18.07 3.8 C 18.17 3.8 18.27 3.84 18.34 3.91 L 21.85 7.42 C 21.92 7.49 21.96 7.59 21.96 7.69 L 21.96 14.31 L 21.18 14.31 L 21.18 8.08 L 18.07 8.08 C 17.85 8.08 17.68 7.91 17.68 7.69 L 17.68 4.58 L 5.61 4.58 L 5.61 24.82 L 21.18 24.82 Z M 10.67 10.03 C 10.57 10.03 10.47 9.99 10.39 9.91 L 8.84 8.36 L 9.39 7.81 L 10.67 9.09 L 13.51 6.25 L 14.06 6.8 L 10.95 9.91 C 10.87 9.99 10.77 10.03 10.67 10.03 Z"
                    fill="#ffffff" stroke="none" style="pointer-events: none;"></path>
            </g>
        </g>
        <g style="pointer-events: none;"></g>
        <g style="pointer-events: none;"></g>
    </g>
    <linearGradient x1="0%" y1="100%" x2="0%" y2="0%" id="mx-gradient-f54749-1-c7131f-1-s-15"
        style="pointer-events: none;">
        <stop offset="0%"
            style="stop-color: rgb(199, 19, 31); stop-opacity: 1; pointer-events: none;"></stop>
        <stop offset="100%"
            style="stop-color: rgb(245, 71, 73); stop-opacity: 1; pointer-events: none;"></stop>
    </linearGradient>
</svg>