<svg
    style="left: 1px; top: 1px; width: 32px; height: 30px; display: block; position: relative; overflow: hidden; pointer-events: none;">
    <g style="pointer-events: none;">
        <g style="pointer-events: none;"></g>
        <g style="pointer-events: none;">
            <g transform="translate(0.5,0.5)" style="visibility: visible; pointer-events: none;">
                <path d="M 2.1 1.05 L 29.4 1.05 L 29.4 28.35 L 2.1 28.35 Z"
                    fill="url(#mx-gradient-f54749-1-c7131f-1-s-29)" stroke="none"
                    style="pointer-events: none;"></path>
                <path
                    d="M 25.9 23.34 L 20.35 17.78 C 20.23 17.67 20.21 17.49 20.28 17.35 C 21.06 15.85 20.76 13.97 19.56 12.77 C 18.7 11.91 17.52 11.5 16.31 11.65 C 15.11 11.79 14.04 12.49 13.39 13.56 C 12.63 14.81 12.67 16.42 13.48 17.66 C 14.61 19.37 16.81 19.96 18.59 19.04 C 18.74 18.96 18.92 18.99 19.03 19.11 L 19.95 20.03 C 20.02 20.1 20.06 20.19 20.06 20.29 L 20.06 21.5 L 21.27 21.5 C 21.37 21.5 21.47 21.54 21.54 21.61 L 22.06 22.14 C 22.13 22.21 22.17 22.3 22.17 22.4 L 22.17 23.61 L 23.38 23.61 C 23.48 23.61 23.58 23.65 23.65 23.72 L 24.34 24.42 L 25.81 24.51 Z M 26.66 23.22 L 26.53 24.94 C 26.51 25.14 26.35 25.28 26.16 25.28 C 26.15 25.28 26.14 25.28 26.13 25.28 L 24.15 25.15 C 24.06 25.15 23.98 25.11 23.91 25.04 L 23.23 24.36 L 21.8 24.36 C 21.59 24.36 21.43 24.19 21.43 23.99 L 21.43 22.56 L 21.12 22.25 L 19.69 22.25 C 19.48 22.25 19.31 22.08 19.31 21.88 L 19.31 20.45 L 18.69 19.82 C 16.61 20.75 14.14 20.02 12.86 18.07 C 11.89 16.59 11.85 14.67 12.76 13.17 C 13.52 11.9 14.79 11.08 16.22 10.9 C 17.66 10.73 19.06 11.22 20.08 12.24 C 21.45 13.6 21.83 15.71 21.06 17.44 L 26.55 22.93 C 26.63 23.01 26.67 23.12 26.66 23.22 Z M 17.68 15.5 C 17.68 15.25 17.59 15.02 17.41 14.84 C 17.23 14.67 17 14.57 16.75 14.57 C 16.5 14.57 16.27 14.67 16.09 14.84 C 15.73 15.21 15.73 15.8 16.09 16.16 C 16.45 16.53 17.05 16.53 17.41 16.16 L 17.41 16.16 C 17.59 15.99 17.68 15.75 17.68 15.5 Z M 17.94 14.32 C 18.26 14.63 18.43 15.06 18.43 15.5 C 18.43 15.95 18.26 16.37 17.94 16.69 L 17.94 16.69 C 17.61 17.02 17.18 17.18 16.75 17.18 C 16.32 17.18 15.89 17.02 15.56 16.69 C 14.91 16.04 14.91 14.97 15.56 14.32 C 15.88 14 16.3 13.82 16.75 13.82 C 17.2 13.82 17.62 14 17.94 14.32 Z M 8.94 16.84 L 11.18 16.84 L 11.18 17.59 L 8.94 17.59 C 6.75 17.58 4.95 16.03 4.84 14.06 C 4.83 13.96 4.83 13.88 4.83 13.79 C 4.83 11.35 6.56 10.45 7.57 10.13 C 7.57 10.02 7.56 9.91 7.56 9.8 C 7.56 7.8 8.97 5.73 10.83 4.99 C 13 4.12 15.3 4.55 16.98 6.15 C 17.42 6.57 17.99 7.2 18.38 7.96 C 18.81 7.59 19.29 7.4 19.83 7.4 C 20.92 7.4 22.13 8.28 22.35 10.18 C 24.6 10.7 25.74 11.93 25.74 13.85 C 25.74 15.88 24.54 17.24 22.44 17.58 L 22.32 16.84 C 23.54 16.65 24.99 15.96 24.99 13.85 C 24.99 12.22 24.02 11.27 21.93 10.86 C 21.77 10.83 21.64 10.68 21.63 10.51 C 21.55 9.12 20.81 8.15 19.83 8.15 C 19.34 8.15 18.94 8.37 18.57 8.85 C 18.48 8.96 18.35 9.01 18.22 8.99 C 18.08 8.97 17.97 8.88 17.92 8.76 C 17.6 7.89 16.95 7.16 16.46 6.7 C 15 5.3 13 4.92 11.11 5.68 C 9.54 6.31 8.31 8.12 8.31 9.8 C 8.31 9.99 8.32 10.17 8.35 10.35 C 8.35 10.37 8.35 10.38 8.35 10.4 L 8.35 10.4 L 8.35 10.4 L 8.35 10.4 L 8.35 10.4 L 8.35 10.4 L 8.35 10.4 L 8.35 10.4 L 8.35 10.4 L 8.35 10.4 L 8.35 10.4 C 8.35 10.59 8.21 10.75 8.03 10.77 C 7.09 11.01 5.58 11.72 5.58 13.79 C 5.58 13.86 5.58 13.94 5.58 14.01 C 5.67 15.59 7.15 16.84 8.94 16.84 Z"
                    fill="#ffffff" stroke="none" style="pointer-events: none;"></path>
            </g>
        </g>
        <g style="pointer-events: none;"></g>
        <g style="pointer-events: none;"></g>
    </g>
    <linearGradient x1="0%" y1="100%" x2="0%" y2="0%" id="mx-gradient-f54749-1-c7131f-1-s-29"
        style="pointer-events: none;">
        <stop offset="0%"
            style="stop-color: rgb(199, 19, 31); stop-opacity: 1; pointer-events: none;"></stop>
        <stop offset="100%"
            style="stop-color: rgb(245, 71, 73); stop-opacity: 1; pointer-events: none;"></stop>
    </linearGradient>
</svg>